<?xml version="1.0" encoding="UTF-8"?>
<svg width="16px" height="16px" viewBox="0 0 16 16" version="1.1" xmlns="http://www.w3.org/2000/svg" xmlns:xlink="http://www.w3.org/1999/xlink">
    <!-- Generator: Sketch 43.1 (39012) - http://www.bohemiancoding.com/sketch -->
    <title>instagram</title>
    <desc>Created with Sketch.</desc>
    <defs></defs>
    <g id="Page-1" stroke="none" stroke-width="1" fill="none" fill-rule="evenodd">
        <g id="instagram" fill="#FFFFFF">
            <path d="M8,0 C5.827,0 5.555,0.01 4.702,0.048 C3.85,0.088 3.27,0.222 2.76,0.42 C2.234,0.624 1.787,0.898 1.343,1.343 C0.898,1.787 0.623,2.233 0.42,2.76 C0.222,3.27 0.087,3.85 0.048,4.702 C0.008,5.555 0,5.827 0,8 C0,10.173 0.01,10.445 0.048,11.298 C0.088,12.15 0.222,12.731 0.42,13.24 C0.624,13.766 0.898,14.213 1.343,14.657 C1.787,15.102 2.233,15.377 2.76,15.58 C3.27,15.778 3.85,15.913 4.702,15.952 C5.555,15.992 5.827,16 8,16 C10.173,16 10.445,15.99 11.298,15.952 C12.15,15.912 12.731,15.778 13.24,15.58 C13.766,15.376 14.213,15.102 14.657,14.657 C15.102,14.213 15.377,13.767 15.58,13.24 C15.778,12.73 15.913,12.15 15.952,11.298 C15.992,10.445 16,10.173 16,8 C16,5.827 15.99,5.555 15.952,4.702 C15.912,3.85 15.778,3.269 15.58,2.76 C15.376,2.234 15.102,1.787 14.657,1.343 C14.213,0.898 13.767,0.623 13.24,0.42 C12.73,0.222 12.15,0.087 11.298,0.048 C10.445,0.008 10.173,0 8,0 Z M8,1.44 C10.136,1.44 10.39,1.45 11.233,1.488 C12.013,1.524 12.436,1.654 12.718,1.764 C13.092,1.909 13.358,2.082 13.638,2.362 C13.918,2.642 14.091,2.908 14.236,3.282 C14.346,3.564 14.476,3.987 14.512,4.767 C14.55,5.611 14.559,5.864 14.559,8 C14.559,10.136 14.549,10.39 14.509,11.233 C14.469,12.013 14.339,12.436 14.229,12.718 C14.079,13.092 13.909,13.358 13.629,13.638 C13.349,13.918 13.079,14.091 12.709,14.236 C12.429,14.346 11.999,14.476 11.219,14.512 C10.369,14.55 10.119,14.559 7.979,14.559 C5.839,14.559 5.589,14.549 4.739,14.509 C3.959,14.469 3.529,14.339 3.249,14.229 C2.869,14.079 2.609,13.909 2.329,13.629 C2.049,13.349 1.869,13.079 1.729,12.709 C1.619,12.429 1.489,11.999 1.449,11.219 C1.419,10.379 1.409,10.119 1.409,7.989 C1.409,5.859 1.419,5.599 1.449,4.749 C1.489,3.969 1.619,3.539 1.729,3.259 C1.869,2.879 2.049,2.619 2.329,2.339 C2.609,2.059 2.869,1.879 3.249,1.739 C3.529,1.629 3.949,1.499 4.729,1.459 C5.579,1.429 5.829,1.419 7.969,1.419 L8,1.44 Z M8,3.892 C5.73,3.892 3.892,5.732 3.892,8 C3.892,10.27 5.732,12.108 8,12.108 C10.27,12.108 12.108,10.268 12.108,8 C12.108,5.73 10.268,3.892 8,3.892 L8,3.892 Z M8,10.667 C6.527,10.667 5.333,9.473 5.333,8 C5.333,6.527 6.527,5.333 8,5.333 C9.473,5.333 10.667,6.527 10.667,8 C10.667,9.473 9.473,10.667 8,10.667 Z M13.23,3.73 C13.23,4.26 12.8,4.69 12.27,4.69 C11.74,4.69 11.31,4.26 11.31,3.73 C11.31,3.2 11.74,2.77 12.27,2.77 C12.8,2.77 13.23,3.2 13.23,3.73 Z" id="Shape"></path>
        </g>
    </g>
</svg>