<?xml version="1.0" encoding="UTF-8"?>
<svg width="18px" height="17px" viewBox="0 0 18 17" version="1.1" xmlns="http://www.w3.org/2000/svg" xmlns:xlink="http://www.w3.org/1999/xlink">
    <!-- Generator: Sketch 43.1 (39012) - http://www.bohemiancoding.com/sketch -->
    <title>phone</title>
    <desc>Created with Sketch.</desc>
    <defs></defs>
    <g id="Page-1" stroke="none" stroke-width="1" fill="none" fill-rule="evenodd">
        <g id="phone" transform="translate(0.000000, 1.000000)" stroke="#FFFFFF" fill-rule="nonzero" fill="#FFFFFF">
            <path d="M16.1656754,10.8127835 C15.7703199,10.6151057 13.8390081,9.67020607 13.4772578,9.53973874 C13.1174843,9.40729461 12.8545729,9.34206094 12.5916614,9.73741647 C12.3307268,10.1268417 11.5755977,11.0084845 11.3462915,11.2694191 C11.1169853,11.5264002 10.8876791,11.546168 10.4962771,11.368258 C10.1009216,11.1705803 8.83183041,10.7554569 7.3294794,9.41124821 C6.15922704,8.36355607 5.37246955,7.07865061 5.14118657,6.68329507 C4.91188036,6.28793954 5.11548846,6.07049399 5.31316622,5.87281623 C5.49107621,5.69490624 5.70852174,5.41815738 5.90619951,5.18094406 C6.09992372,4.94373075 6.1631806,4.78558854 6.29760148,4.52860745 C6.4280688,4.25185858 6.36283514,4.03441304 6.26399626,3.83673528 C6.16515738,3.63905752 5.37839988,1.70181544 5.0502548,0.930872167 C4.73397038,0.159928893 4.40780207,0.258767773 4.16465842,0.258767773 C3.937329,0.239 3.67441757,0.239 3.41348292,0.239 C3.14859472,0.239 2.72161075,0.33783888 2.36183723,0.713426627 C2.0020637,1.10878215 0.986,2.05763541 0.986,3.97510971 C0.986,5.89258401 2.39544245,7.75075501 2.59114343,8.02750387 C2.78882119,8.28448494 5.36653922,12.2380402 9.31218734,13.9380689 C10.2531335,14.3334245 10.9845412,14.5706378 11.5578067,14.7683155 C12.4987529,15.0648322 13.3566744,15.0252966 14.0347091,14.9264577 C14.7918149,14.8078511 16.3633531,13.9776045 16.6914982,13.048519 C17.0275504,12.1194335 17.0275504,11.3484903 16.9287115,11.1705803 C16.8298727,10.9926703 16.5728915,10.8938314 16.1775361,10.7159214" id="Path"></path>
        </g>
    </g>
</svg>