<?xml version="1.0" encoding="UTF-8"?>
<svg width="618px" height="194px" viewBox="0 0 618 194" version="1.1" xmlns="http://www.w3.org/2000/svg" xmlns:xlink="http://www.w3.org/1999/xlink">
    <!-- Generator: Sketch 43.1 (39012) - http://www.bohemiancoding.com/sketch -->
    <title>tap.c</title>
    <desc>Created with Sketch.</desc>
    <defs></defs>
    <g id="Page-1" stroke="none" stroke-width="1" fill="none" fill-rule="evenodd">
        <g id="tap.c" fill-rule="nonzero" fill="#000000">
            <path d="M11.383,92.45 C11.383,95.337 9.043,97.673 6.154,97.673 C3.261,97.673 0.922,95.337 0.922,92.45 C0.922,89.563 3.261,87.221 6.154,87.221 C9.042,87.221 11.383,89.563 11.383,92.45" id="Shape"></path>
            <polygon id="Shape" points="35.943 56.129 21.709 61.327 16.943 48.267 58.827 32.967 63.597 46.041 49.364 51.231 67.47 100.83 54.044 105.723"></polygon>
            <path d="M112.03,74.965 C122.232,72.582 128.562,61.606 125.997,50.656 C123.433,39.711 112.768,32.627 102.567,35.013 C92.274,37.426 86.055,48.469 88.616,59.415 C91.18,70.368 101.734,77.386 112.03,74.965 M99.375,21.38 C117.837,17.054 136.199,28.605 140.561,47.241 C144.914,65.803 133.676,84.282 115.222,88.609 C96.761,92.927 78.402,81.38 74.05,62.826 C69.688,44.182 80.913,25.707 99.375,21.38" id="Shape"></path>
            <polygon id="Shape" points="159.508 25.12 144.518 27.294 142.519 13.537 186.636 7.137 188.634 20.895 173.644 23.066 181.215 75.293 167.08 77.343"></polygon>
            <path d="M250.182,31.829 L255.593,43.063 L246.268,43.596 L250.182,31.829 Z M222.404,70.259 L237.53,69.398 L242.146,56.627 L261.181,55.536 L267.026,67.709 L282.155,66.841 L248.398,0.719 L222.404,70.259 Z" id="Shape"></path>
            <polygon id="Shape" points="303.839 0.236 289.554 0.311 289.922 66.984 329.354 66.777 329.279 53.441 304.141 53.571"></polygon>
            <path d="M388.254,16.095 L379.412,15.472 L378.024,35.137 L386.858,35.767 C393.046,36.197 396.652,32.352 397.051,26.652 C397.439,21.231 393.577,16.471 388.254,16.095 M387.171,49.063 L377.098,48.348 L375.639,68.877 L361.391,67.863 L366.09,1.35 L390.414,3.068 C403.147,3.975 412.48,15.136 411.588,27.673 C410.688,40.509 399.899,49.959 387.171,49.063" id="Shape"></path>
            <path d="M441.467,8.103 L435.42,52.268 C434.723,57.37 438.385,62.201 443.576,62.913 C448.767,63.613 453.598,59.952 454.291,54.854 L460.346,10.685 L474.405,12.61 L468.35,56.783 C466.589,69.712 454.713,78.467 441.6,76.675 C428.48,74.879 419.584,63.277 421.36,50.344 L427.4,6.175 L441.467,8.103 Z" id="Shape"></path>
            <polygon id="Shape" points="492.23 15.614 504.12 18.313 524.402 53.218 530.954 24.427 544.334 27.47 529.257 93.69 500.38 41.592 490.804 83.669 477.424 80.617"></polygon>
            <polygon id="Shape" points="568.266 49.741 553.98 44.698 558.6 31.574 600.66 46.408 596.033 59.532 581.746 54.498 564.189 104.279 550.709 99.523"></polygon>
            <path d="M617.078,92.45 C617.078,95.337 614.734,97.673 611.85,97.673 C608.956,97.673 606.617,95.337 606.617,92.45 C606.617,89.563 608.957,87.221 611.85,87.221 C614.734,87.221 617.078,89.563 617.078,92.45" id="Shape"></path>
            <path d="M479.947,176.102 L494.061,176.102 C493.675,183.268 488.15,188.303 480.44,188.303 C472.949,188.303 466.823,181.844 466.823,173.973 C466.823,166.049 472.949,159.59 480.44,159.59 C484.982,159.59 489.026,161.996 491.491,165.606 C491.491,165.662 496.135,162.055 496.135,162.055 C492.584,157.243 486.844,154.128 480.441,154.128 C469.559,154.128 460.815,162.982 460.815,173.973 C460.815,184.911 469.559,193.764 480.441,193.764 C491.877,193.764 500.071,184.911 500.071,173.973 C500.071,172.938 500.012,171.952 499.848,170.97 L479.948,170.97 L479.948,176.102 L479.947,176.102 Z M405.048,193.052 L410.29,193.052 L410.29,164.19 L435.002,193.709 L435.002,154.781 L429.763,154.781 L429.763,178.893 L410.176,154.781 L405.048,154.781 L405.048,193.052 Z M371.312,193.052 L376.882,193.052 L376.882,154.786 L371.312,154.786 L371.312,193.052 Z M337.959,168.341 C337.959,172.609 334.564,176.931 330.021,176.931 L322.585,176.931 L322.585,159.7 L330.021,159.7 C334.564,159.699 337.959,163.911 337.959,168.341 L337.959,168.341 Z M337.354,179.388 C340.413,177.803 343.746,173.809 343.746,168.341 C343.746,160.462 337.518,154.781 329.369,154.781 L316.962,154.781 L316.962,193.052 L322.587,193.052 L322.587,181.841 L329.369,181.841 C334.948,181.841 338.066,187.258 338.066,191.468 L338.066,193.052 L343.746,193.052 L343.746,191.468 C343.745,186.87 342.106,182.117 337.354,179.388 L337.354,179.388 Z M267.368,193.052 L289.997,193.052 L289.997,187.591 L272.937,187.591 L272.937,174.626 L288.902,174.626 L288.902,169.385 L272.937,169.385 L272.937,160.134 L289.667,160.134 L289.667,154.781 L267.367,154.781 L267.367,193.052 L267.368,193.052 Z M226.522,193.052 L232.092,193.052 L232.092,160.134 L241.551,160.134 L241.551,154.781 L217.063,154.781 L217.063,160.134 L226.522,160.134 L226.522,193.052 Z M187.75,178.569 L178.786,178.569 L183.267,167.139 L187.75,178.569 Z M189.612,183.484 L193.548,193.051 L199.454,193.051 L183.267,154.073 L167.084,193.051 L172.989,193.051 L176.926,183.484 L189.612,183.484 Z M143.787,186.39 C141.766,187.646 139.47,188.303 137.006,188.303 C129.515,188.303 123.395,181.849 123.395,173.973 C123.395,166.044 129.515,159.59 137.006,159.59 C139.47,159.59 141.766,160.297 143.787,161.558 L143.787,155.33 C141.658,154.566 139.413,154.128 137.006,154.128 C126.128,154.128 117.386,162.977 117.386,173.973 C117.386,184.911 126.128,193.764 137.006,193.764 C139.413,193.764 141.658,193.326 143.787,192.564 L143.787,186.39 Z" id="Shape"></path>
        </g>
    </g>
</svg>