<?xml version="1.0" encoding="UTF-8"?>
<svg width="688px" height="216px" viewBox="0 0 688 216" version="1.1" xmlns="http://www.w3.org/2000/svg" xmlns:xlink="http://www.w3.org/1999/xlink">
    <!-- Generator: Sketch 43.1 (39012) - http://www.bohemiancoding.com/sketch -->
    <title>tap.r</title>
    <desc>Created with Sketch.</desc>
    <defs></defs>
    <g id="Page-1" stroke="none" stroke-width="1" fill="none" fill-rule="evenodd">
        <g id="tap.r" fill-rule="nonzero" fill="#000000">
            <path d="M96.722,176.307 L88.1,176.307 L88.1,196.284 L96.723,196.284 C101.987,196.284 105.918,191.266 105.918,186.327 C105.917,181.187 101.986,176.307 96.722,176.307 M112.638,213.137 L112.638,214.978 L106.05,214.978 L106.05,213.137 C106.05,208.259 102.434,201.979 95.963,201.979 L88.1,201.979 L88.1,214.978 L81.575,214.978 L81.575,170.607 L95.964,170.607 C105.411,170.607 112.639,177.201 112.639,186.327 C112.639,192.661 108.78,197.293 105.219,199.132 C110.737,202.305 112.638,207.822 112.638,213.137" id="Shape"></path>
            <path d="M156.846,209.469 C165.534,209.469 172.63,201.979 172.63,192.858 C172.63,183.663 165.535,176.178 156.846,176.178 C148.162,176.178 141.064,183.662 141.064,192.858 C141.063,201.979 148.162,209.469 156.846,209.469 M156.846,169.844 C169.47,169.844 179.605,180.109 179.605,192.858 C179.605,205.525 169.47,215.807 156.846,215.807 C144.232,215.807 134.087,205.525 134.087,192.858 C134.087,180.108 144.231,169.844 156.846,169.844" id="Shape"></path>
            <path d="M219.767,189.56 C226.74,189.56 232.319,195.262 232.319,202.109 C232.319,209.084 226.68,214.978 219.767,214.978 L202.586,214.978 L202.586,208.633 L218.625,208.633 C222.434,208.633 225.477,205.914 225.477,202.172 C225.477,198.37 222.434,195.641 218.625,195.641 L212.483,195.641 C205.631,195.641 200.184,189.753 200.184,182.961 C200.184,176.183 205.631,170.602 212.483,170.602 L226.609,170.602 L226.609,176.627 L213.239,176.627 C209.693,176.627 206.772,179.54 206.772,183.094 C206.772,186.639 209.693,189.56 213.239,189.56 L219.767,189.56 L219.767,189.56 Z" id="Shape"></path>
            <polygon id="Shape" points="259.347 176.815 248.381 176.815 248.381 170.606 276.787 170.606 276.787 176.815 265.812 176.815 265.812 214.973 259.347 214.973"></polygon>
            <rect id="Rectangle-path" x="299.565" y="170.602" width="6.466" height="44.376"></rect>
            <path d="M348.904,189.56 C355.877,189.56 361.459,195.262 361.459,202.109 C361.459,209.084 355.822,214.978 348.904,214.978 L331.725,214.978 L331.725,208.633 L347.767,208.633 C351.562,208.633 354.617,205.914 354.617,202.172 C354.617,198.37 351.562,195.641 347.767,195.641 L341.621,195.641 C334.768,195.641 329.313,189.753 329.313,182.961 C329.313,176.183 334.768,170.602 341.621,170.602 L355.744,170.602 L355.744,176.627 L342.368,176.627 C338.822,176.627 335.911,179.54 335.911,183.094 C335.911,186.639 338.822,189.56 342.368,189.56 L348.904,189.56 L348.904,189.56 Z" id="Shape"></path>
            <path d="M399.205,189.56 C406.18,189.56 411.762,195.262 411.762,202.109 C411.762,209.084 406.123,214.978 399.205,214.978 L382.033,214.978 L382.033,208.633 L398.07,208.633 C401.863,208.633 404.908,205.914 404.908,202.172 C404.908,198.37 401.863,195.641 398.07,195.641 L391.912,195.641 C385.068,195.641 379.611,189.753 379.611,182.961 C379.611,176.183 385.068,170.602 391.912,170.602 L406.047,170.602 L406.047,176.627 L392.668,176.627 C389.127,176.627 386.203,179.54 386.203,183.094 C386.203,186.639 389.127,189.56 392.668,189.56 L399.205,189.56 L399.205,189.56 Z" id="Shape"></path>
            <polygon id="Shape" points="434.664 170.602 460.537 170.602 460.537 176.815 441.129 176.815 441.129 187.528 459.645 187.528 459.645 193.61 441.129 193.61 441.129 208.638 460.904 208.638 460.904 214.978 434.664 214.978"></polygon>
            <path d="M500.172,176.307 L491.555,176.307 L491.555,196.284 L500.172,196.284 C505.438,196.284 509.367,191.266 509.367,186.327 C509.367,181.187 505.438,176.307 500.172,176.307 M516.094,213.137 L516.094,214.978 L509.496,214.978 L509.496,213.137 C509.496,208.259 505.887,201.979 499.42,201.979 L491.555,201.979 L491.555,214.978 L485.028,214.978 L485.028,170.607 L499.421,170.607 C508.868,170.607 516.095,177.201 516.095,186.327 C516.095,192.661 512.226,197.293 508.675,199.132 C514.191,202.305 516.094,207.822 516.094,213.137" id="Shape"></path>
            <rect id="Rectangle-path" x="540.902" y="170.602" width="6.471" height="44.376"></rect>
            <path d="M588.143,184.933 L582.952,198.178 L593.354,198.178 L588.143,184.933 Z M580.787,203.878 L576.219,214.978 L569.377,214.978 L588.143,169.776 L606.911,214.978 L600.059,214.978 L595.498,203.878 L580.787,203.878 Z" id="Shape"></path>
            <path d="M11.695,103.157 C11.695,106.377 9.078,108.99 5.857,108.99 C2.63,108.99 0.017,106.377 0.017,103.157 C0.017,99.928 2.631,97.314 5.857,97.314 C9.078,97.314 11.695,99.929 11.695,103.157" id="Shape"></path>
            <polygon id="Shape" points="39.118 62.602 23.227 68.407 17.9 53.824 64.669 36.74 70.001 51.338 54.107 57.135 74.321 112.513 59.331 117.974"></polygon>
            <path d="M124.074,83.634 C135.468,80.974 142.531,68.72 139.667,56.488 C136.806,44.271 124.901,36.359 113.507,39.024 C102.012,41.716 95.071,54.048 97.931,66.265 C100.79,78.498 112.579,86.335 124.074,83.634 M109.944,23.803 C130.56,18.979 151.059,31.87 155.929,52.682 C160.785,73.402 148.24,94.04 127.638,98.868 C107.022,103.689 86.524,90.797 81.667,70.077 C76.797,49.265 89.332,28.632 109.944,23.803" id="Shape"></path>
            <polygon id="Shape" points="177.085 27.981 160.348 30.407 158.117 15.048 207.372 7.898 209.601 23.266 192.867 25.688 201.322 83.996 185.537 86.293"></polygon>
            <path d="M278.32,35.466 L284.374,48.018 L273.956,48.61 L278.32,35.466 Z M247.311,78.378 L264.197,77.42 L269.354,63.157 L290.604,61.937 L297.132,75.525 L314.024,74.562 L276.332,0.734 L247.311,78.378 Z" id="Shape"></path>
            <polygon id="Shape" points="338.238 0.193 322.289 0.281 322.702 74.728 366.723 74.488 366.643 59.603 338.571 59.754"></polygon>
            <path d="M432.488,17.905 L422.619,17.208 L421.07,39.166 L430.935,39.868 C437.835,40.349 441.863,36.053 442.312,29.687 C442.744,23.638 438.43,18.322 432.488,17.905 M431.279,54.714 L420.029,53.911 L418.4,76.833 L402.496,75.699 L407.742,1.441 L434.898,3.358 C449.119,4.371 459.539,16.827 458.548,30.829 C457.539,45.16 445.488,55.713 431.279,54.714" id="Shape"></path>
            <path d="M491.908,8.976 L485.152,58.291 C484.377,63.987 488.463,69.38 494.256,70.173 C500.053,70.957 505.445,66.871 506.225,61.18 L512.977,11.865 L528.68,14.007 L521.924,63.331 C519.955,77.764 506.694,87.546 492.049,85.541 C477.399,83.533 467.473,70.582 469.453,56.144 L476.195,6.825 L491.908,8.976 Z" id="Shape"></path>
            <polygon id="Shape" points="548.584 17.364 561.855 20.377 584.502 59.346 591.822 27.206 606.758 30.604 589.928 104.542 557.682 46.371 546.988 93.352 532.055 89.944"></polygon>
            <polygon id="Shape" points="633.482 55.471 617.531 49.838 622.686 35.186 669.648 51.751 664.484 66.404 648.533 60.776 628.928 116.361 613.881 111.054"></polygon>
            <path d="M687.984,103.157 C687.984,106.377 685.365,108.99 682.14,108.99 C678.911,108.99 676.302,106.377 676.302,103.157 C676.302,99.928 678.911,97.314 682.14,97.314 C685.365,97.314 687.984,99.929 687.984,103.157" id="Shape"></path>
        </g>
    </g>
</svg>