<?xml version="1.0" encoding="UTF-8"?>
<svg width="618px" height="106px" viewBox="0 0 618 106" version="1.1" xmlns="http://www.w3.org/2000/svg" xmlns:xlink="http://www.w3.org/1999/xlink">
    <!-- Generator: Sketch 43.1 (39012) - http://www.bohemiancoding.com/sketch -->
    <title>tap</title>
    <desc>Created with Sketch.</desc>
    <defs></defs>
    <g id="Page-1" stroke="none" stroke-width="1" fill="none" fill-rule="evenodd">
        <g id="tap" fill-rule="nonzero" fill="#444444">
            <path d="M11.383,92.471 C11.383,95.358 9.043,97.694 6.154,97.694 C3.261,97.694 0.923,95.358 0.923,92.471 C0.923,89.584 3.262,87.242 6.154,87.242 C9.042,87.242 11.383,89.584 11.383,92.471" id="Shape"></path>
            <polygon id="Shape" points="35.943 56.149 21.709 61.348 16.943 48.288 58.827 32.987 63.597 46.062 49.364 51.252 67.47 100.851 54.044 105.743"></polygon>
            <path d="M112.03,74.985 C122.232,72.602 128.562,61.627 125.998,50.676 C123.434,39.731 112.769,32.647 102.567,35.033 C92.274,37.445 86.055,48.488 88.617,59.434 C91.18,70.389 101.734,77.406 112.03,74.985 M99.375,21.4 C117.837,17.075 136.199,28.626 140.561,47.261 C144.915,65.823 133.676,84.302 115.222,88.629 C96.761,92.946 78.402,81.4 74.05,62.846 C69.688,44.203 80.913,25.728 99.375,21.4" id="Shape"></path>
            <polygon id="Shape" points="159.508 25.141 144.518 27.314 142.519 13.558 186.636 7.157 188.634 20.916 173.644 23.087 181.215 75.313 167.08 77.363"></polygon>
            <path d="M250.182,31.85 L255.593,43.084 L246.268,43.617 L250.182,31.85 Z M222.404,70.279 L237.53,69.419 L242.146,56.648 L261.181,55.557 L267.026,67.73 L282.155,66.862 L248.398,0.74 L222.404,70.279 Z" id="Shape"></path>
            <polygon id="Shape" points="303.839 0.257 289.554 0.332 289.922 67.005 329.354 66.798 329.28 53.462 304.141 53.592"></polygon>
            <path d="M388.254,16.115 L379.412,15.493 L378.023,35.157 L386.857,35.788 C393.046,36.218 396.652,32.373 397.05,26.673 C397.44,21.252 393.576,16.492 388.254,16.115 M387.172,49.084 L377.098,48.369 L375.639,68.897 L361.391,67.883 L366.09,1.37 L390.414,3.088 C403.146,3.995 412.48,15.155 411.588,27.692 C410.688,40.529 399.899,49.979 387.172,49.084" id="Shape"></path>
            <path d="M441.467,8.124 L435.42,52.289 C434.723,57.391 438.385,62.222 443.576,62.934 C448.767,63.634 453.597,59.973 454.291,54.875 L460.346,10.706 L474.405,12.631 L468.35,56.804 C466.59,69.733 454.713,78.488 441.6,76.696 C428.481,74.9 419.584,63.299 421.36,50.365 L427.401,6.196 L441.467,8.124 Z" id="Shape"></path>
            <polygon id="Shape" points="492.231 15.635 504.119 18.334 524.403 53.238 530.953 24.447 544.334 27.49 529.258 93.711 500.381 41.612 490.805 83.689 477.424 80.638"></polygon>
            <polygon id="Shape" points="568.266 49.762 553.981 44.719 558.6 31.595 600.66 46.429 596.033 59.553 581.746 54.519 564.19 104.3 550.709 99.544"></polygon>
            <path d="M617.078,92.471 C617.078,95.358 614.734,97.694 611.849,97.694 C608.954,97.694 606.617,95.358 606.617,92.471 C606.617,89.584 608.957,87.242 611.849,87.242 C614.735,87.242 617.078,89.584 617.078,92.471" id="Shape"></path>
        </g>
    </g>
</svg>